<svg width="820" height="140" viewBox="0 0 820 140" fill="none" xmlns="http://www.w3.org/2000/svg">
  <path d="M18 90C76 70 106 116 160 94C208 74 229 30 288 34C357 40 369 116 440 118C507 120 534 52 598 54C665 56 698 110 802 84" stroke="#3B342E" stroke-opacity="0.65" stroke-width="6" stroke-linecap="round"/>
  <path d="M20 98C72 80 110 124 164 102C211 83 237 39 291 42C360 46 375 122 441 126C511 130 541 62 602 62C671 62 711 118 804 93" stroke="#D77A4A" stroke-opacity="0.55" stroke-width="3.5" stroke-linecap="round"/>
</svg>
