<svg width="240" height="86" viewBox="0 0 240 86" fill="none" xmlns="http://www.w3.org/2000/svg">
  <path d="M12 19.4C12 10.8948 18.8948 4 27.4 4H212.6C221.105 4 228 10.8948 228 19.4V66.6C228 75.1052 221.105 82 212.6 82H27.4C18.8948 82 12 75.1052 12 66.6V19.4Z" fill="#F4D4A6" fill-opacity="0.54"/>
  <path d="M4 27.3557C4 20.5943 8.33729 14.5972 14.7611 12.4727L34.2921 6.01476C36.0756 5.42518 37.942 5.12256 39.8205 5.11847L204.514 4.75998C206.427 4.75582 208.329 5.06033 210.146 5.66195L226.33 11.0218C233.324 13.3379 238.04 19.8771 238.04 27.2445V58.7298C238.04 65.8002 233.693 72.1413 227.102 74.7282L212.495 80.4605C210.706 81.1621 208.801 81.5225 206.879 81.5225H39.9233C37.9862 81.5225 36.0651 81.1565 34.2624 80.4457L16.1602 73.3063C8.82585 70.413 4 63.3135 4 55.429V27.3557Z" stroke="#B9854E" stroke-opacity="0.34" stroke-width="1.4"/>
</svg>
